<?xml version="1.0" encoding="UTF-8" standalone="no"?>
<!-- Created with Inkscape (http://www.inkscape.org/) -->

<svg
   xmlns:dc="http://purl.org/dc/elements/1.1/"
   xmlns:cc="http://creativecommons.org/ns#"
   xmlns:rdf="http://www.w3.org/1999/02/22-rdf-syntax-ns#"
   xmlns:svg="http://www.w3.org/2000/svg"
   xmlns="http://www.w3.org/2000/svg"
   xmlns:sodipodi="http://sodipodi.sourceforge.net/DTD/sodipodi-0.dtd"
   xmlns:inkscape="http://www.inkscape.org/namespaces/inkscape"
   version="1.1"
   id="svg4639"
   xml:space="preserve"
   width="783.52948"
   height="143.68793"
   viewBox="0 0 783.52948 143.68793"
   sodipodi:docname="dostlar.svg"
   inkscape:version="0.92.1 unknown"><metadata
     id="metadata4645"><rdf:RDF><cc:Work
         rdf:about=""><dc:format>image/svg+xml</dc:format><dc:type
           rdf:resource="http://purl.org/dc/dcmitype/StillImage" /><dc:title /></cc:Work></rdf:RDF></metadata><defs
     id="defs4643" /><sodipodi:namedview
     pagecolor="#ffffff"
     bordercolor="#666666"
     borderopacity="1"
     objecttolerance="10"
     gridtolerance="10"
     guidetolerance="10"
     inkscape:pageopacity="0"
     inkscape:pageshadow="2"
     inkscape:window-width="1920"
     inkscape:window-height="1056"
     id="namedview4641"
     showgrid="false"
     fit-margin-left="5"
     fit-margin-top="5"
     fit-margin-right="5"
     fit-margin-bottom="1"
     inkscape:zoom="1.2733773"
     inkscape:cx="351.52269"
     inkscape:cy="131.06341"
     inkscape:window-x="0"
     inkscape:window-y="24"
     inkscape:window-maximized="1"
     inkscape:current-layer="g4647" /><g
     id="g4647"
     inkscape:groupmode="layer"
     inkscape:label="ink_ext_XXXXXX"
     transform="matrix(1.3333333,0,0,-1.3333333,5.0001708,184.35466)"><path
       inkscape:connector-curvature="0"
       id="path4651"
       style="fill:#ffffff;fill-opacity:1;fill-rule:nonzero;stroke:none;stroke-width:0.1"
       d="m 524.572,75.5059 c 0.446,-0.0262 0.814,-0.0672 1.183,-0.0672 4.775,-0.0035 9.549,-0.0285 14.324,0.016 1.554,0.0144 3.118,0.1371 4.66,0.3445 2.689,0.3629 5.257,1.1582 7.612,2.5449 3.466,2.0403 5.749,5.0032 6.788,8.8872 0.922,3.4492 0.894,6.9265 0.038,10.38 -1.393,5.6287 -4.922,9.2297 -10.486,10.8377 -1.872,0.542 -3.785,0.837 -5.732,0.842 -5.863,0.016 -11.725,0.014 -17.586,0.011 -0.268,0 -0.535,-0.074 -0.777,-0.109 -0.154,-1.194 -0.181,-32.059 -0.024,-33.6871 z m 55.575,-36.0684 c -6.195,0.0059 -12.39,0.0113 -18.585,0.0172 -0.565,4e-4 -1.131,0 -1.745,0 -5.448,7.2855 -10.882,14.5516 -16.313,21.8148 -6.335,-0.0511 -12.605,0.0016 -18.916,-0.0351 -0.222,-1.5555 -0.089,-2.9684 -0.113,-4.3739 -0.024,-1.4183 -0.006,-2.8375 -0.006,-4.2562 0,-1.466 0,-2.9316 0,-4.398 0,-1.4184 0,-2.8375 0,-4.2563 0,-1.4148 0,-2.8293 0,-4.2027 -0.525,-0.4434 -1.068,-0.2828 -1.565,-0.2844 -4.73,-0.0137 -9.458,-0.0094 -14.188,-0.0059 -0.419,0 -0.838,0.0305 -1.322,0.0493 -0.056,0.314 -0.127,0.5792 -0.144,0.848 -0.024,0.3766 -0.008,0.7562 -0.008,1.1348 0,26.9086 0,53.8172 10e-4,80.7259 0,0.607 0.011,1.215 0.019,1.884 0.352,0.062 0.617,0.127 0.885,0.149 0.282,0.025 0.567,0.008 0.851,0.008 11.823,0 23.645,0.004 35.468,-0.002 4.079,-0.003 8.122,-0.371 12.086,-1.383 4.267,-1.089 8.203,-2.865 11.612,-5.704 4.17,-3.472 6.829,-7.911 8.298,-13.091 1.292,-4.5537 1.613,-9.199 1.25,-13.9088 -0.225,-2.9348 -0.694,-5.8195 -1.589,-8.6246 -2.305,-7.2141 -6.851,-12.5254 -13.602,-15.9516 -0.543,-0.275 -1.088,-0.5445 -1.691,-0.8472 0.098,-0.5364 0.465,-0.852 0.742,-1.2071 4.681,-6.0039 9.37,-12.0023 14.054,-18.0035 1.51,-1.9352 3.014,-3.8742 4.521,-5.8117 0,-0.0945 0,-0.1891 0,-0.284" /><path
       inkscape:connector-curvature="0"
       id="path4653"
       style="fill:#ffffff;fill-opacity:1;fill-rule:nonzero;stroke:none;stroke-width:0.1"
       d="m 129.422,54.6164 c 5.945,0.0082 11.139,1.5223 15.836,4.6559 9.857,6.5742 14.243,18.4945 11.191,29.5476 -4.395,15.9241 -22.226,24.7701 -37.929,17.6921 -12.455,-5.614 -18.8079,-19.4534 -14.949,-32.4636 3.396,-11.4464 14.021,-19.3402 25.851,-19.432 z m 0.853,70.4966 c 12.289,-0.232 23.348,-4.505 32.374,-13.577 6.389,-6.423 10.399,-14.154 11.772,-23.1172 1.773,-11.5758 -0.788,-22.1997 -7.742,-31.6399 -6.572,-8.9203 -15.412,-14.4879 -26.16,-17.0664 -4.637,-1.1129 -9.349,-1.4293 -14.088,-1.0855 -15.334,1.1125 -28.5568,9.5226 -35.8447,21.8878 -3.016,5.1176 -4.8633,10.6313 -5.5363,16.5446 -1.7125,15.0293 4.7445,29.1226 16.126,38.1296 6.327,5.008 13.514,8.075 21.47,9.343 2.383,0.381 4.791,0.536 7.629,0.581" /><path
       inkscape:connector-curvature="0"
       id="path4655"
       style="fill:#ffffff;fill-opacity:1;fill-rule:nonzero;stroke:#ffffff;stroke-width:0.1;stroke-opacity:1"
       d="m 16.9398,55.3059 c 0.4368,-0.027 0.8086,-0.0704 1.1813,-0.0704 5.6258,-0.0039 11.2512,-0.0101 16.8762,0.0063 0.9906,0.0035 1.991,0.041 2.9695,0.1816 4.0141,0.5766 7.652,2.1039 10.8246,4.6227 6.5125,5.1691 10.0125,11.9602 10.5004,20.2402 0.4309,7.3164 -1.7645,13.8321 -6.5855,19.3543 -4.8715,5.5804 -11.0434,8.6524 -18.5059,8.7984 -5.4344,0.107 -10.8723,0.026 -16.3082,0.022 -0.3184,0 -0.6367,-0.064 -1.0078,-0.104 C 16.8473,107.98 16.793,107.66 16.7867,107.338 16.5855,97.3359 16.6898,56.9395 16.9398,55.3059 Z M 0.234375,124.173 c 0.430859,0.031 0.800005,0.079 1.169145,0.079 10.92778,0.003 21.85738,0.12 32.78358,-0.025 20.2672,-0.27 36.3207,-14.218 40.8281,-31.9762 1.245,-4.9074 1.6168,-9.8805 1.0594,-14.9192 C 74.9234,66.927 70.6441,58.0148 63.1988,50.6707 57.6754,45.2223 51.098,41.6582 43.4566,40.1445 41.3656,39.7305 39.2512,39.4676 37.118,39.4652 25.1961,39.4527 13.2746,39.4559 1.35313,39.4586 0.986328,39.459 0.619531,39.5152 0.210156,39.5488 0.1625,39.8883 0.1,40.1602 0.0902344,40.4336 -0.0914063,45.5988 0.0234375,122.728 0.234375,124.173" /><path
       inkscape:connector-curvature="0"
       id="path4657"
       style="fill:#ffffff;fill-opacity:1;fill-rule:nonzero;stroke:none;stroke-width:0.1"
       d="m 262.256,118.289 c -2.335,-4.587 -4.605,-9.046 -6.909,-13.57 -0.38,0.117 -0.69,0.191 -0.984,0.307 -5.743,2.266 -11.675,3.833 -17.781,4.711 -3.279,0.471 -6.579,0.764 -9.9,0.402 -1.894,-0.206 -3.727,-0.625 -5.461,-1.432 -1.125,-0.523 -2.156,-1.188 -3.01,-2.096 -1.963,-2.087 -2.633,-4.535 -1.986,-7.3309 0.285,-1.2336 0.94,-2.2602 1.83,-3.1461 0.949,-0.9457 2.067,-1.6477 3.255,-2.2477 2.163,-1.0922 4.446,-1.8738 6.781,-2.4808 3.475,-0.9047 6.976,-1.7133 10.461,-2.5817 3.903,-0.9722 7.752,-2.1156 11.464,-3.6843 2.095,-0.8856 4.12,-1.9067 6.022,-3.1594 2.189,-1.4418 4.142,-3.143 5.716,-5.2559 2.088,-2.8015 3.215,-5.9672 3.611,-9.4211 0.382,-3.3301 0.153,-6.6183 -0.703,-9.8488 -1.399,-5.2766 -4.373,-9.4863 -8.783,-12.6891 -3.418,-2.4824 -7.251,-4.0382 -11.328,-5.0507 -3.228,-0.8016 -6.514,-1.1907 -9.826,-1.304 -4.828,-0.1648 -9.652,0.0184 -14.453,0.5458 -5.298,0.582 -10.398,1.971 -15.302,4.0527 -2.131,0.9047 -4.225,1.8992 -6.332,2.8601 -0.341,0.1555 -0.665,0.3461 -1.054,0.5508 0.327,1.2285 0.98,2.2696 1.468,3.3778 0.495,1.1242 1.039,2.2277 1.56,3.341 0.501,1.0703 0.982,2.1504 1.505,3.2105 0.537,1.0906 0.944,2.2512 1.667,3.3418 0.478,-0.2035 0.907,-0.375 1.326,-0.5676 3.271,-1.5011 6.614,-2.8046 10.085,-3.7691 4.213,-1.1715 8.517,-1.7684 12.875,-1.9504 2.409,-0.1008 4.825,-0.0918 7.236,-0.0414 2.136,0.0449 4.232,0.432 6.255,1.1426 1.394,0.489 2.694,1.1594 3.803,2.1543 2.365,2.1215 3.078,4.8082 2.556,7.8508 -0.274,1.6011 -1.218,2.8492 -2.458,3.8742 -1.179,0.973 -2.516,1.6754 -3.911,2.2761 -2.219,0.9567 -4.521,1.6766 -6.859,2.2704 -3.481,0.8832 -6.982,1.6925 -10.461,2.5836 -3.759,0.9613 -7.461,2.105 -11.02,3.6707 -2.389,1.0503 -4.667,2.2918 -6.751,3.875 -4.991,3.7902 -7.543,8.8457 -7.848,15.0734 -0.149,3.0464 0.108,6.0474 1.016,8.9754 1.507,4.862 4.349,8.775 8.417,11.811 3.35,2.501 7.121,4.091 11.158,5.074 3.042,0.74 6.134,1.128 9.268,1.182 11.325,0.198 22.178,-2.04 32.632,-6.326 0.344,-0.14 0.67,-0.325 1.153,-0.561" /><path
       inkscape:connector-curvature="0"
       id="path4659"
       style="fill:#ffffff;fill-opacity:1;fill-rule:nonzero;stroke:none;stroke-width:0.1"
       d="m 458.29,98.7102 c -0.501,-0.3473 -0.591,-0.8383 -0.783,-1.259 -3.766,-8.2567 -7.559,-16.502 -11.271,-24.7836 -2.262,-5.0457 -4.38,-10.1559 -6.59,-15.225 -2.474,-5.6758 -4.977,-11.3395 -7.472,-17.0071 -0.13,-0.2976 -0.296,-0.5808 -0.428,-0.8363 -1.345,-0.2051 -16.742,-0.1941 -17.862,0.002 -0.016,0.0902 -0.075,0.2004 -0.043,0.2672 13.352,28.0875 26.709,56.1711 40.036,84.1886 1.087,0.24 6.993,0.287 8.702,0.078 13.358,-27.9569 26.747,-55.9748 40.131,-83.9944 0.076,-0.1586 0.101,-0.3418 0.17,-0.5851 -0.251,-0.041 -0.423,-0.0942 -0.595,-0.0942 -5.767,-0.0043 -11.533,-0.0031 -17.342,-0.0031 -0.249,0.5164 -0.483,0.9731 -0.694,1.4398 -4.327,9.6118 -8.556,19.2657 -12.731,28.945 -2.414,5.5976 -5.043,11.1023 -7.581,16.6465 -1.653,3.6101 -3.315,7.2164 -4.975,10.823 -0.213,0.4621 -0.442,0.9176 -0.672,1.3977" /><path
       inkscape:connector-curvature="0"
       id="path4661"
       style="fill:#ffffff;fill-opacity:1;fill-rule:nonzero;stroke:none;stroke-width:0.1"
       d="m 311.778,39.5367 c -1.995,-0.1586 -15.937,-0.1097 -17.097,0.061 -0.032,0.2418 -0.087,0.5089 -0.097,0.7781 -0.018,0.4246 -0.007,0.8508 -0.007,1.2765 0,21.8567 0,43.7129 0,65.5697 0,0.611 0,1.223 0,1.9 -0.323,0.071 -0.583,0.16 -0.847,0.177 -0.424,0.029 -0.851,0.011 -1.276,0.011 -7.712,0 -15.423,-0.001 -23.134,0.002 -0.509,0.001 -1.018,0.037 -1.56,0.058 -0.052,0.27 -0.117,0.448 -0.117,0.625 -0.006,4.678 -0.005,9.356 -0.005,14.09 0.347,0.067 0.612,0.144 0.881,0.162 0.376,0.026 0.756,0.009 1.135,0.009 22.424,0 44.848,0.001 67.272,-0.002 0.605,0 1.219,0.059 1.854,-0.092 0.051,-0.22 0.127,-0.396 0.127,-0.572 0.007,-4.679 0.005,-9.359 0.005,-14.12 -0.38,-0.06 -0.69,-0.15 -0.999,-0.152 -2.081,-0.013 -4.163,-0.008 -6.244,-0.008 -6.009,0 -12.017,0.001 -18.026,-0.001 -0.514,-10e-4 -1.028,-0.017 -1.606,-0.027 -0.056,-0.334 -0.126,-0.6 -0.138,-0.868 -0.021,-0.472 -0.008,-0.946 -0.008,-1.419 0,-21.8563 0,-43.7126 -0.003,-65.5692 -10e-4,-0.6035 0.069,-1.2168 -0.11,-1.8891" /><path
       inkscape:connector-curvature="0"
       id="path4663"
       style="fill:#ffffff;fill-opacity:1;fill-rule:nonzero;stroke:none;stroke-width:0.1"
       d="m 408.489,53.8063 c 0.24,-1.2286 0.243,-12.9977 0.012,-14.2137 -0.114,-0.0379 -0.243,-0.1184 -0.372,-0.1184 -19.917,-0.0043 -39.833,-0.0039 -59.75,0.0028 -0.129,0 -0.26,0.08 -0.443,0.1398 -0.037,0.2203 -0.108,0.4457 -0.108,0.6711 0.003,27.8164 0.01,55.6332 0.026,83.4501 0,0.125 0.102,0.25 0.15,0.362 1.237,0.223 8.542,0.293 15.887,0.152 0.32,-0.006 0.638,-0.059 0.885,-0.082 0.09,-0.124 0.123,-0.157 0.142,-0.198 0.02,-0.042 0.03,-0.09 0.041,-0.136 0.009,-0.045 0.019,-0.092 0.022,-0.139 0.007,-0.094 0.009,-0.188 0.013,-0.283 10e-4,-0.047 10e-4,-0.094 0.002,-0.142 0,-0.095 0.001,-0.19 0.001,-0.284 0,-22.708 10e-4,-45.4157 0.002,-68.1232 0,-0.0949 0.003,-0.1894 0.005,-0.2835 10e-4,-0.0473 0,-0.0954 0.005,-0.1422 0.006,-0.0469 0.017,-0.0934 0.027,-0.1391 0.01,-0.0461 0.02,-0.0914 0.051,-0.2246 0.222,-0.052 0.481,-0.1465 0.744,-0.1652 0.423,-0.0297 0.851,-0.0102 1.277,-0.0102 13.246,-4e-4 26.492,4e-4 39.738,-0.0035 0.556,0 1.123,0.0676 1.643,-0.0902" /><path
       inkscape:connector-curvature="0"
       id="path4665"
       style="fill:#ffffff;fill-opacity:1;fill-rule:nonzero;stroke:none;stroke-width:0.1"
       d="m 185.313,112.645 4.992,21.871 h -16.778 v -21.871 h 11.786" /><rect
       style="fill:#ffffff;fill-opacity:0;stroke:none;stroke-width:0.75118107;stroke-miterlimit:3.9000001;stroke-dasharray:none;stroke-opacity:1"
       id="rect5250"
       width="189.2049"
       height="5.1136456"
       x="390.34158"
       y="-36.363701"
       transform="scale(1,-1)"
       ry="1.6875" /><path
       style="fill:#ffffff;fill-opacity:0;stroke:none;stroke-width:0.41713107;stroke-miterlimit:3.9000001;stroke-dasharray:none;stroke-opacity:1"
       d="M 0.55195494,39.77731 C 0.39924736,39.930017 0.27430478,58.952523 0.27430478,82.049548 V 124.04413 H 18.360841 c 19.243594,0 22.414416,-0.22235 27.916801,-1.95762 6.822281,-2.15153 12.436021,-5.58256 17.519134,-10.70742 5.40948,-5.45391 8.84107,-11.387917 10.931688,-18.903383 1.014322,-3.646369 1.1211,-4.689772 1.095367,-10.70381 -0.0249,-5.815119 -0.167257,-7.182099 -1.1181,-10.735628 C 70.242763,54.357153 56.617906,41.902225 40.683327,39.93529 36.848883,39.461972 1.0083817,39.320882 0.55195494,39.77731 Z M 39.186012,55.5154 c 7.019913,1.343138 13.892071,6.74673 17.255567,13.5681 2.339949,4.745561 3.098554,8.553414 2.859681,14.354298 -0.145546,3.534483 -0.427617,5.222744 -1.234521,7.388916 -2.943434,7.901805 -8.690071,13.754376 -16.154311,16.452086 -3.039727,1.09862 -3.380462,1.12911 -14.254877,1.27589 l -11.140712,0.15038 V 82.465932 c 0,-14.431525 0.113758,-26.535587 0.252796,-26.897912 0.22029,-0.574065 1.474033,-0.658777 9.750531,-0.658777 6.584432,0 10.46951,0.185932 12.665846,0.606157 z"
       id="path4491"
       inkscape:connector-curvature="0" /><path
       style="fill:#ffffff;fill-opacity:0;stroke:none;stroke-width:0.41713107;stroke-miterlimit:3.9000001;stroke-dasharray:none;stroke-opacity:1"
       d="M 0.55195494,39.77731 C 0.39924736,39.930017 0.27430478,58.952523 0.27430478,82.049548 V 124.04413 H 18.360841 c 19.243594,0 22.414416,-0.22235 27.916801,-1.95762 6.822281,-2.15153 12.436021,-5.58256 17.519134,-10.70742 5.40948,-5.45391 8.84107,-11.387917 10.931688,-18.903383 1.014322,-3.646369 1.1211,-4.689772 1.095367,-10.70381 -0.0249,-5.815119 -0.167257,-7.182099 -1.1181,-10.735628 C 70.242763,54.357153 56.617906,41.902225 40.683327,39.93529 36.848883,39.461972 1.0083817,39.320882 0.55195494,39.77731 Z M 39.186012,55.5154 c 7.019913,1.343138 13.892071,6.74673 17.255567,13.5681 2.339949,4.745561 3.098554,8.553414 2.859681,14.354298 -0.145546,3.534483 -0.427617,5.222744 -1.234521,7.388916 -2.943434,7.901805 -8.690071,13.754376 -16.154311,16.452086 -3.039727,1.09862 -3.380462,1.12911 -14.254877,1.27589 l -11.140712,0.15038 V 82.465932 c 0,-14.431525 0.113758,-26.535587 0.252796,-26.897912 0.22029,-0.574065 1.474033,-0.658777 9.750531,-0.658777 6.584432,0 10.46951,0.185932 12.665846,0.606157 z"
       id="path4493"
       inkscape:connector-curvature="0" /></g></svg>