<?xml version="1.0" encoding="UTF-8" standalone="no"?>
<!-- Generator: Adobe Illustrator 21.0.0, SVG Export Plug-In . SVG Version: 6.00 Build 0)  -->

<svg
   xmlns:dc="http://purl.org/dc/elements/1.1/"
   xmlns:cc="http://creativecommons.org/ns#"
   xmlns:rdf="http://www.w3.org/1999/02/22-rdf-syntax-ns#"
   xmlns:svg="http://www.w3.org/2000/svg"
   xmlns="http://www.w3.org/2000/svg"
   xmlns:sodipodi="http://sodipodi.sourceforge.net/DTD/sodipodi-0.dtd"
   xmlns:inkscape="http://www.inkscape.org/namespaces/inkscape"
   version="1.1"
   id="Слой_1"
   x="0px"
   y="0px"
   viewBox="0 0 635.39264 174.47958"
   xml:space="preserve"
   sodipodi:docname="Безымянный-1.svg"
   width="635.39264"
   height="174.47958"
   inkscape:version="0.92.1 unknown"><metadata
     id="metadata27"><rdf:RDF><cc:Work
         rdf:about=""><dc:format>image/svg+xml</dc:format><dc:type
           rdf:resource="http://purl.org/dc/dcmitype/StillImage" /><dc:title></dc:title></cc:Work></rdf:RDF></metadata><defs
     id="defs25" /><sodipodi:namedview
     pagecolor="#ffffff"
     bordercolor="#666666"
     borderopacity="1"
     objecttolerance="10"
     gridtolerance="10"
     guidetolerance="10"
     inkscape:pageopacity="0"
     inkscape:pageshadow="2"
     inkscape:window-width="1920"
     inkscape:window-height="1056"
     id="namedview23"
     showgrid="false"
     fit-margin-top="0"
     fit-margin-left="0"
     fit-margin-right="0"
     fit-margin-bottom="0"
     inkscape:zoom="0.74167645"
     inkscape:cx="418.16024"
     inkscape:cy="112.3852"
     inkscape:window-x="0"
     inkscape:window-y="24"
     inkscape:window-maximized="1"
     inkscape:current-layer="Слой_1" /><style
     type="text/css"
     id="style2">
	.st0{fill-rule:evenodd;clip-rule:evenodd;fill:#FFFFFF;}
</style><g
     id="g20"
     transform="translate(-140.81249,-363.41691)"><path
       class="st0"
       d="m 458.9,460.4 c -0.4,-1.8 -3.9,-2.2 -5.4,0 -0.5,0.7 -1.1,5.3 -4.8,6 -1.3,0.2 -2.7,0.6 -4.9,-0.5 -2.9,-1.5 -0.8,-8.2 0.5,-16.4 2.1,-12.5 5,-27.9 5.3,-29.5 2.8,-27.8 -28.1,-13.5 -33.7,-1.7 4.2,-28.5 -29.7,-10.6 -24.9,1.7 1.8,-2.4 4.1,-3.3 7.1,-2.8 l -9.5,37.7 c -16,15.8 -30.5,18.8 -42.9,2.5 21.1,-9.9 36.7,-22.5 36.1,-41.4 -5.2,-13.9 -16.5,-15.9 -33.4,-6.6 -15.8,10.8 -21.7,26.3 -20,45.5 -22.1,16.8 -36.9,18.1 -44,2.5 40.2,-11.5 51.8,-65.3 7.2,-51.6 -16.2,8.8 -28.5,34.4 -25.3,53.9 l -11.7,-0.3 c 0.8,7.6 5.2,10.8 13.8,8.7 5.8,9.2 13.1,13.7 21.5,13.9 10.8,0.3 23.7,-6.4 38.4,-19.1 5.3,14.9 14.7,19 24.2,19.3 10.6,0.2 21.5,-4.6 35.5,-16.3 0.3,5 -0.7,9.4 -2.5,13.2 16.4,5.1 20.3,-5 22.6,-21.4 1.5,-10.9 3.3,-22.4 4.2,-26.8 11.9,-12.4 18.1,-13.1 19.2,-3.8 -5.3,16.8 -9.4,33.1 -7.6,43.2 1.3,7.3 5.1,10.4 10.9,10.8 5.8,0.5 15.6,1 22.8,-10 1.4,-3.7 1.7,-8.9 1.3,-10.7 z M 360,416.5 c 9.3,-3.2 11.9,0.7 10.3,9.4 -6.1,10.8 -14.2,18.7 -24.1,24.1 -0.5,-14.2 3.6,-25.7 13.8,-33.5 z m -61.8,-0.2 c 9.3,-3.2 12,0.7 10.3,9.4 -6.1,10.8 -14.2,18.7 -24.1,24.2 -0.5,-14.3 3.5,-25.8 13.8,-33.6 z"
       id="path4"
       inkscape:connector-curvature="0"
       style="clip-rule:evenodd;fill:#ffffff;fill-rule:evenodd" /><path
       class="st0"
       d="m 554.8,395.1 c 7.7,8.5 14.7,7 20.9,-2.9 2.5,-8 2.2,-15.4 -3.1,-21.7 -6.9,-7 -16.3,-9.1 -28.9,-5 -46.4,18.8 -54.8,129.4 8.1,113.3 11.2,-2.4 17.2,-4.3 20.7,-10.1 1.1,-1.8 0.6,-4.1 0.8,-7.3 0.1,-1.4 -0.2,-1.4 -1,-0.9 -3.4,2 -12.8,5.2 -19.6,7.1 -7.9,1.5 -13,-0.6 -17.1,-4.3 -19.6,-17.4 -1.3,-81.1 13.3,-87.1 4.6,-1.9 10.2,-0.5 11.7,3.7 1.6,3.9 -0.7,10.4 -5.8,15.2 z"
       id="path6"
       inkscape:connector-curvature="0"
       style="clip-rule:evenodd;fill:#ffffff;fill-rule:evenodd" /><path
       class="st0"
       d="m 596.4,395.8 c 6,0 10.8,-5.1 10.8,-11.4 0,-6.3 -4.9,-11.4 -10.8,-11.4 -6,0 -10.8,5.1 -10.8,11.4 0,6.3 4.9,11.4 10.8,11.4 z"
       id="path8"
       inkscape:connector-curvature="0"
       style="clip-rule:evenodd;fill:#ffffff;fill-rule:evenodd" /><path
       class="st0"
       d="m 722.2,480.3 c -7.8,-2.5 -14.7,-4 -24,-2.8 11.3,-9.7 24.7,-18.1 39.4,-25.1 -14.3,4.6 -28.2,10 -40.7,18.8 0.9,-4.5 6.6,-28 10.1,-45.1 1.6,-8.2 4.8,-14.5 3.6,-18.9 -1.3,-4.5 -8.7,-7.2 -17.3,0.5 L 680.9,460 c -1.4,1.3 -3.4,4 -7.6,4.5 -9.8,1.1 -7.9,-10.4 -5.3,-23.3 2.3,-11.4 5,-24.1 6,-28.8 0.2,-7.3 -7.9,-8.7 -15.3,-6.2 -5.9,2 -10.3,7.4 -8.4,12 0.6,1.4 3.6,-0.4 5.7,0.1 l -9.1,44.8 c -10.2,5.7 -15.6,6.5 -18.8,-0.8 l 8.6,-48 9.9,0.3 c 3.6,-3.2 4.5,-5.8 2.2,-8.8 l -8.8,-0.5 c 0.7,-4.6 1.1,-8.1 1.8,-14 0.5,-4.2 -2,-6.7 -6.2,-7.6 -3.2,-0.6 -8,-1.2 -10.4,4.2 -2.2,5.1 -2.9,12.8 -3.7,18 l -8.3,0.2 c -2.2,2.1 -2.5,5 -0.8,7.4 l 7.9,0.9 -10.3,47.3 c -4.1,2.9 -9,5.5 -12.7,5.5 -8.4,0 -7,-8.2 -4.7,-19.4 2.7,-13.2 7.2,-30 8.6,-35.7 0.5,-5.2 -2.7,-8.2 -10.6,-8.6 -9.2,1.4 -14.8,5.8 -15.8,13.9 3.9,-1.1 6.2,-2.1 7.3,0.1 l -9.2,42.5 -0.5,13.6 c 3,6.5 9.1,8.1 14.3,7.9 8.6,-0.2 17,-6.2 22.7,-12.1 2.4,9 8.6,11.9 14.7,11.6 6.5,-0.3 13.2,-4.5 22.9,-12.7 5,15.8 16.3,15.9 33.1,2.5 l -1,8.2 c -20.4,5.4 -36,14.9 -43,26.1 -5.7,9.1 -5.1,17.5 -0.5,24 3.9,5.6 10.6,10 22.1,8.5 22.1,-8.8 33.4,-28.8 37.4,-56.3 9.5,0.8 19,0.8 26.2,2.4 14.6,3.3 23.8,9.4 32.3,16.5 -7.8,-9.6 -19.5,-16.1 -31.4,-19.9 z m -64.5,40.5 c -11,5.7 -16.3,0.4 -11,-10.3 4.4,-10.5 14.7,-17.2 27,-21.7 -1.1,14.1 -5.8,25.2 -16,32 z"
       id="path10"
       inkscape:connector-curvature="0"
       style="clip-rule:evenodd;fill:#ffffff;fill-rule:evenodd" /><path
       class="st0"
       d="m 750.9,451.6 c -14.4,2.7 -26.8,8.5 -35.8,19.9 6.8,8.9 14.8,7.5 22.2,1.8 8.5,-6.6 15.9,-20.1 24.9,-20.5 -32.8,-16.8 -51.9,-15.8 -53.4,8 13.9,-9 28,-12.1 42.1,-9.2 z"
       id="path12"
       inkscape:connector-curvature="0"
       style="clip-rule:evenodd;fill:#ffffff;fill-rule:evenodd" /><path
       class="st0"
       d="m 727.9,491.3 c -3.8,7.8 -0.3,19.5 8,24.7 10.7,6.8 28.4,2.3 40.1,13 0.9,-12.8 -1.3,-24.1 -3.9,-31.8 -9.2,-27.9 -29.2,-25.7 -35.8,-16.3 12,5.2 17.6,13 22.3,18.9 7.1,8.8 10.2,15.8 13.3,22.3 -13.2,-16.9 -27.2,-27.1 -44,-30.8 z"
       id="path14"
       inkscape:connector-curvature="0"
       style="clip-rule:evenodd;fill:#ffffff;fill-rule:evenodd" /><path
       class="st0"
       d="m 188.8,396.2 c 7.7,8.5 14.7,7 20.9,-2.9 2.5,-8 2.2,-15.4 -3.1,-21.7 -6.9,-7 -16.3,-9.1 -28.9,-5 -46.4,18.8 -54.7,128.7 8.2,112.6 17.7,-5.1 25.5,-19.9 24.2,-43.1 2.5,-0.5 4.8,1.1 7.1,4.3 1.6,-7.4 0.2,-13.1 -7.5,-15.2 -8.1,-0.2 -16,2 -24.1,1.8 -3.8,-0.1 -8.2,-0.7 -11.6,-2.6 -0.2,12.7 7.1,19.4 18.8,17.2 2.9,-0.5 5.8,-2 8.4,-3.7 1.7,13.6 -2.8,22.6 -12.8,27.5 -45.7,8.4 -23,-81 -5.3,-88.2 4.6,-1.9 10.2,-0.5 11.7,3.7 1.4,4 -1,10.5 -6,15.3 z"
       id="path16"
       inkscape:connector-curvature="0"
       style="clip-rule:evenodd;fill:#ffffff;fill-rule:evenodd" /><path
       class="st0"
       d="m 216.7,419.3 c -0.2,-2.5 0.3,-5 1.1,-6.5 1.3,-2.3 4.3,-5.4 8,-6.8 9,-3.4 18.9,-1.2 15.6,12.8 5.9,-10.9 12.1,-14.7 17.7,-14.7 2.7,0 5.4,0.2 7.6,2.3 12.1,10.6 -3.3,27.3 -11.1,24 0.5,-14.6 -7.1,-12.7 -13.1,-1.7 -0.4,0.7 -4.4,9.7 -7.5,20.5 -3,10.5 -4.9,22.8 -8,28.8 -1.8,3.4 -7.8,3.5 -11.7,3.3 -3.5,-0.2 -6.5,-1.1 -9.9,-5 -1.4,-1.7 7.5,-6.7 10.3,-15.9 5.2,-17.2 7.1,-42.6 7.1,-42 0,0.4 -1.5,-0.7 -3,-0.5 -1.5,0 -3.1,1.4 -3.1,1.4 z"
       id="path18"
       inkscape:connector-curvature="0"
       style="clip-rule:evenodd;fill:#ffffff;fill-rule:evenodd" /></g></svg>