<svg id="Слой_1" xmlns="http://www.w3.org/2000/svg" viewBox="0 0 110 110"><style>.st0{fill:url(#SVGID_1_)}.st1{fill:url(#SVGID_2_)}.st2{fill:url(#SVGID_3_)}.st3{fill:url(#SVGID_4_)}.st4{fill:url(#SVGID_5_)}.st5{fill:url(#SVGID_6_)}.st6{fill:url(#SVGID_7_)}.st7{fill:url(#SVGID_8_)}.st8{fill:url(#SVGID_9_)}.st9{fill:url(#SVGID_10_)}.st10{fill:url(#SVGID_11_)}</style><linearGradient id="SVGID_1_" gradientUnits="userSpaceOnUse" x1="51.433" y1="17.5" x2="51.433" y2="74.356"><stop offset="0" stop-color="#f99c16"/><stop offset="1" stop-color="#1818aa"/></linearGradient><path class="st0" d="M54.7 72.2c-14.9 0-27-12.1-27-27s12.1-27 27-27c6.9 0 13.5 2.6 18.6 7.4 1 1 1.1 2.6.1 3.6s-2.6 1.1-3.6.1c-4.1-3.9-9.4-6-15-6-12 0-21.8 9.8-21.8 21.8s9.8 21.8 21.8 21.8c6.1 0 11.9-2.5 16-7 1-1 2.6-1.1 3.6-.1s1.1 2.6.1 3.6c-5.1 5.6-12.3 8.8-19.8 8.8z"/><linearGradient id="SVGID_2_" gradientUnits="userSpaceOnUse" x1="55.339" y1="21.682" x2="45.712" y2="60.034"><stop offset="0" stop-color="#f99c16"/><stop offset="1" stop-color="#1818aa"/></linearGradient><path class="st1" d="M44.4 59.1c-1.5 0-2.8-1.3-2.8-2.8V41c0-1.1.7-2.1 1.7-2.6 1-.4 2.2-.2 3 .6l9.7 9.7c1.1 1.1 1.1 2.9 0 4s-2.9 1.1-4 0l-4.9-4.9v8.6c.1 1.5-1.1 2.7-2.7 2.7z"/><linearGradient id="SVGID_3_" gradientUnits="userSpaceOnUse" x1="47.369" y1="19.682" x2="37.742" y2="58.033"><stop offset="0" stop-color="#f99c16"/><stop offset="1" stop-color="#1818aa"/></linearGradient><circle class="st2" cx="43.8" cy="33.9" r="2.8"/><linearGradient id="SVGID_4_" gradientUnits="userSpaceOnUse" x1="47.266" y1="36.48" x2="103.784" y2="81.353"><stop offset="0" stop-color="#f99c16"/><stop offset="1" stop-color="#1818aa"/></linearGradient><path class="st3" d="M63.9 59.1c-1.5 0-2.8-1.3-2.8-2.8v-8.6l-4.9 4.9c-1.1 1.1-2.9 1.1-4 0s-1.1-2.9 0-4l9.7-9.7c.8-.8 2-1 3-.6s1.7 1.5 1.7 2.6v15.4c.1 1.6-1.2 2.8-2.7 2.8z"/><linearGradient id="SVGID_5_" gradientUnits="userSpaceOnUse" x1="54.929" y1="26.829" x2="111.447" y2="71.702"><stop offset="0" stop-color="#f99c16"/><stop offset="1" stop-color="#1818aa"/></linearGradient><circle class="st4" cx="63.7" cy="33.8" r="2.8"/><linearGradient id="SVGID_6_" gradientUnits="userSpaceOnUse" x1="14.059" y1="84.881" x2="97.571" y2="84.881"><stop offset="0" stop-color="#f99c16"/><stop offset="1" stop-color="#1818aa"/></linearGradient><path class="st5" d="M27.2 88.1c-.2-.4-.6-.7-1.1-.8-.4 0-.8.2-1 .5-.4.5-.9.9-1.4 1.2-.7.3-1.4.5-2.1.5-2.5 0-4.5-2.1-4.5-4.8 0-2.5 1.3-4.1 3.7-4.4 1.9-.2 3.1.2 4.2 1.3.5.6 1.3.5 1.8 0s.5-1.2.1-1.7c-1.6-1.7-3.8-2.4-6.4-2.1-3.4.5-5.8 3.4-5.8 6.9 0 4.1 3.1 7.3 7 7.3 1 0 2.1-.3 3.2-.8 1-.5 1.8-1.1 2.4-1.9 0-.4.1-.8-.1-1.2z"/><linearGradient id="SVGID_7_" gradientUnits="userSpaceOnUse" x1="14.059" y1="84.883" x2="97.571" y2="84.883"><stop offset="0" stop-color="#f99c16"/><stop offset="1" stop-color="#1818aa"/></linearGradient><path class="st6" d="M41.9 90.2l-6-11.8c-.2-.4-.6-.7-1.1-.7-.5 0-1 .3-1.2.7l-6 11.8c-.3.6 0 1.3.6 1.6.2.1.4.1.6.1.5 0 .9-.2 1.1-.7l1.5-2.8h6.8l1.4 2.8c.2.4.6.7 1.1.7.5 0 1-.2 1.2-.6.2-.3.2-.7 0-1.1zM37 86.1h-4.4l2.2-4.4 2.2 4.4z"/><linearGradient id="SVGID_8_" gradientUnits="userSpaceOnUse" x1="14.059" y1="84.881" x2="97.571" y2="84.881"><stop offset="0" stop-color="#f99c16"/><stop offset="1" stop-color="#1818aa"/></linearGradient><path class="st7" d="M52.1 86.9c2-.6 3-2.1 3-4.2 0-2.4-1.8-4.8-5.7-4.8h-4.7c-.7 0-1.3.5-1.3 1.3v11.4c0 .7.5 1.2 1.3 1.2.7 0 1.3-.5 1.3-1.2v-3.3h3l3.9 4.2c.3.3.6.4.9.4h.3c.4-.1.8-.4.9-.9.1-.4 0-.9-.4-1.2l-2.5-2.9zm.5-4.1c0 .5-.1 1-.5 1.3-.5.5-1.4.8-2.6.8H46v-4.5h3.4c1.9 0 3.2.9 3.2 2.4z"/><linearGradient id="SVGID_9_" gradientUnits="userSpaceOnUse" x1="14.059" y1="84.881" x2="97.571" y2="84.881"><stop offset="0" stop-color="#f99c16"/><stop offset="1" stop-color="#1818aa"/></linearGradient><path class="st8" d="M81.1 89.3h-7.3v-3.2h6.9c.4 0 .7-.1.9-.4.2-.2.3-.5.3-.8 0-.7-.5-1.2-1.2-1.2h-6.9v-3.3h7.3c.7 0 1.2-.5 1.2-1.2 0-.3-.1-.6-.3-.8-.2-.2-.5-.4-.9-.4h-8.4c-.8 0-1.5.6-1.5 1.4v10.9c0 .8.6 1.4 1.5 1.4h8.4c.5 0 .8-.2.9-.4.2-.2.3-.5.3-.8 0-.5-.4-1.2-1.2-1.2z"/><linearGradient id="SVGID_10_" gradientUnits="userSpaceOnUse" x1="14.059" y1="84.881" x2="97.571" y2="84.881"><stop offset="0" stop-color="#f99c16"/><stop offset="1" stop-color="#1818aa"/></linearGradient><path class="st9" d="M67.4 89.3h-7.3v-3.2H67c.4 0 .7-.1.9-.4.2-.2.3-.5.3-.8 0-.7-.5-1.2-1.2-1.2h-6.9v-3.3h7.3c.7 0 1.2-.5 1.2-1.2 0-.3-.1-.6-.3-.8-.2-.2-.5-.4-.9-.4H59c-.8 0-1.5.6-1.5 1.4v10.9c0 .8.6 1.4 1.5 1.4h8.4c.5 0 .8-.2.9-.4.2-.2.3-.5.3-.8 0-.5-.4-1.2-1.2-1.2z"/><linearGradient id="SVGID_11_" gradientUnits="userSpaceOnUse" x1="14.059" y1="84.881" x2="97.571" y2="84.881"><stop offset="0" stop-color="#f99c16"/><stop offset="1" stop-color="#1818aa"/></linearGradient><path class="st10" d="M93.2 86.9c2-.6 3-2.1 3-4.2 0-2.4-1.8-4.8-5.7-4.8h-4.7c-.7 0-1.3.5-1.3 1.3v11.4c0 .7.5 1.2 1.3 1.2.7 0 1.3-.5 1.3-1.2v-3.3h3l3.9 4.2c.3.3.6.4.9.4h.3c.4-.1.8-.4.9-.9.1-.4 0-.9-.4-1.2l-2.5-2.9zm.4-4.1c0 .5-.1 1-.5 1.3-.5.5-1.4.8-2.6.8H87v-4.5h3.4c1.9 0 3.2.9 3.2 2.4z"/></svg>