<svg xmlns="http://www.w3.org/2000/svg" viewBox="-5874.516 1696.693 20.817 15.857">
  <g id="email" transform="translate(-5874.516 1696.693)">
    <g id="Group_137" data-name="Group 137" transform="translate(0 0)">
      <path id="Path_1198" data-name="Path 1198" d="M18.988,61H1.83A1.833,1.833,0,0,0,0,62.83v12.2a1.833,1.833,0,0,0,1.83,1.83H18.988a1.833,1.833,0,0,0,1.83-1.83V62.83A1.833,1.833,0,0,0,18.988,61Zm-.253,1.22-8.288,8.288L2.088,62.22ZM1.22,74.775v-11.7L7.094,68.9Zm.863.862L7.96,69.759,10.02,71.8a.61.61,0,0,0,.861,0l2.008-2.008,5.846,5.846ZM19.6,74.775l-5.846-5.846L19.6,63.082Z" transform="translate(0 -61)"/>
    </g>
  </g>
</svg>
