<svg xmlns="http://www.w3.org/2000/svg" viewBox="-5935.483 1692.874 12.022 23.573">
  <g id="facebook" transform="translate(-5935.483 1692.874)">
    <path id="Path_1197" data-name="Path 1197" d="M78.636,23.573H73.563V13H70.769V8.15h2.794V5.424c0-2.5,1.566-5.424,5.98-5.424a23.4,23.4,0,0,1,2.746.152l.468.061-.113,4.542-.516,0S80.968,4.74,79.7,4.74c-.941,0-1.066.232-1.066,1.156V8.151h4.155L82.561,13H78.637V23.573h0Zm-4.024-1.049h2.975V11.955h3.972L81.69,9.2h-4.1V5.9c0-1.091.251-2.205,2.115-2.205.749,0,1.461,0,1.919.007l.063-2.554c-.463-.041-1.234-.094-2.142-.094-3.635,0-4.931,2.26-4.931,4.375V9.2H71.817v2.757h2.794V22.524h0Z" transform="translate(-70.769)"/>
  </g>
</svg>
