<svg xmlns="http://www.w3.org/2000/svg" viewBox="-6005.558 1695.495 20.936 20.936">
  <g id="Group_144" data-name="Group 144" transform="translate(-6005.558 1695.495)">
    <path id="Path_1190" data-name="Path 1190" d="M18.894,3.5H9.042A5.542,5.542,0,0,0,3.5,9.042v9.852a5.542,5.542,0,0,0,5.542,5.542h9.852a5.542,5.542,0,0,0,5.542-5.542V9.042A5.542,5.542,0,0,0,18.894,3.5ZM23.2,18.894a4.31,4.31,0,0,1-4.31,4.31H9.042a4.31,4.31,0,0,1-4.31-4.31V9.042a4.31,4.31,0,0,1,4.31-4.31h9.852a4.31,4.31,0,0,1,4.31,4.31Z" transform="translate(-3.5 -3.5)"/>
    <path id="Path_1191" data-name="Path 1191" d="M12.926,8a4.926,4.926,0,1,0,4.926,4.926A4.926,4.926,0,0,0,12.926,8Zm0,8.621a3.695,3.695,0,1,1,3.695-3.695A3.695,3.695,0,0,1,12.926,16.621Z" transform="translate(-2.458 -2.458)"/>
    <path id="Path_1192" data-name="Path 1192" d="M16.732,6.5a1.232,1.232,0,1,0,1.232,1.232A1.232,1.232,0,0,0,16.732,6.5Zm0,1.232Z" transform="translate(-0.722 -2.805)"/>
  </g>
</svg>
